<?xml version="1.0" standalone="no"?>
<!DOCTYPE svg PUBLIC "-//W3C//DTD SVG 1.1//EN" "http://www.w3.org/Graphics/SVG/1.1/DTD/svg11.dtd" >
<svg xmlns="http://www.w3.org/2000/svg">
<metadata></metadata>
<defs>
<font id="matilderegular" horiz-adv-x="421" >
<font-face units-per-em="2048" ascent="1638" descent="-410" />
<missing-glyph horiz-adv-x="302" />
<glyph unicode="&#xfb01;" horiz-adv-x="470" d="M31 498v15h85v598q0 51 29 90t70 56t89.5 9.5t84.5 -41.5q28 -28 24 -51q-2 -13 -10 -21t-18.5 -9.5t-20 1.5t-16 12.5t-5.5 21.5q1 20 21 23.5t25 -14.5l-14 -5q0 4 -4 4q-12 4 -13 -10q0 -16 16 -20q10 -2 18 5t6 21.5t-19 30.5q-33 31 -77 37.5t-81.5 -8.5 t-63.5 -50.5t-26 -81.5v-598h272v-499h47v-14h-108v14h47v484h-258v-484h46v-14h-107v14h46v484h-85zM377 634q0 19 19 19q12 0 17 -9.5t0 -19t-17 -9.5q-19 0 -19 19z" />
<glyph unicode="&#xfb03;" horiz-adv-x="738" d="M31 498v15h85v598q0 51 29 90t70 56t89.5 9.5t84.5 -41.5q16 -16 21 -29q40 60 114 71t134 -42q28 -28 24 -51q-2 -13 -10 -21t-18.5 -9.5t-20 1.5t-16 12.5t-5.5 21.5q1 20 21 23.5t25 -14.5l-14 -5q0 4 -4 4q-12 4 -13 -10q0 -16 16 -20q10 -2 18 5t6 21.5t-19 30.5 q-33 31 -77 37.5t-81.5 -8.5t-63.5 -50.5t-26 -81.5v-598h272v-499h46v-14h-108v14h47v484h-257v-484h46v-14h-107v14h46v484h-254v-484h46v-14h-107v14h46v484h-85zM131 513h254v598q0 18 3 33q2 9 9 31q3 17 -18 39q-33 31 -77 37.5t-81.5 -8.5t-63.5 -50.5t-26 -81.5 v-598zM646 634q0 19 19 19q12 0 17 -9.5t0 -19t-17 -9.5q-19 0 -19 19z" />
<glyph horiz-adv-x="0" />
<glyph horiz-adv-x="682" />
<glyph unicode=" "  horiz-adv-x="302" />
<glyph unicode="&#x09;" horiz-adv-x="302" />
<glyph unicode="&#xa0;" horiz-adv-x="302" />
<glyph unicode="!" horiz-adv-x="81" d="M21 19q0 19 19 19q12 0 17 -9.5t0 -19t-17 -9.5q-19 0 -19 19zM33 171v1098h15v-1098h-15z" />
<glyph unicode="&#x22;" horiz-adv-x="244" d="M57 1081l21 188h14l-20 -188h-15zM127 1081l20 188h16l-21 -188h-15z" />
<glyph unicode="#" horiz-adv-x="922" d="M18 477v15h199l82 285h-196v15h200l131 462h-44v15h108v-15h-48l-132 -462h370l132 462h-44v15h108v-15h-48l-133 -462h197v-15h-201l-81 -285h196v-15h-200l-132 -463h44v-14h-107v14h48l132 463h-371l-132 -463h44v-14h-107v14h48l132 463h-195zM232 492h371l81 285 h-370z" />
<glyph unicode="$" horiz-adv-x="666" d="M27 244v15h107v-15h-47q3 -96 72 -165t165 -72v624q-50 43 -76 67.5t-65.5 67.5t-59 77t-35 80.5t-15.5 95.5q0 103 73 178.5t178 78.5v60h-46v15h107v-15h-46v-60q101 -2 174.5 -75.5t76.5 -175.5h46v-14h-108v14h46q-3 96 -71.5 165t-163.5 72v-624q50 -44 76 -67.5 t65.5 -66.5t59 -77t35 -81t15.5 -96q-1 -105 -75 -180t-176 -77v-60h46v-15h-107v15h46v60q-102 3 -175 76t-76 175h-46zM87 1019q0 -46 14.5 -90t33.5 -77t55 -73t62 -64.5t72 -64.5v612q-98 -3 -167 -74.5t-70 -168.5zM339 7q92 0 163.5 71.5t71.5 171.5q0 46 -13.5 90 t-33 77t-54.5 72.5t-62 64.5t-72 64v-611z" />
<glyph unicode="%" horiz-adv-x="897" d="M46 956q10 -69 39 -117.5t68 -66t79.5 -14t76.5 37.5t56 90q23 60 23 127.5t-23 127.5q-31 86 -98 116.5t-129 -12.5q-57 -39 -80.5 -120t-11.5 -169zM58 1058q10 83 48 134t83.5 60.5t91.5 -20.5t70 -96q21 -57 21 -122.5t-21 -122.5q-28 -79 -88 -107t-117 10 q-54 37 -75.5 112.5t-12.5 151.5zM156 0h107v15h-43l473 1239h49v15h-107v-15h43l-473 -1239h-49v-15zM513 199q12 -86 54.5 -138t92 -60t99 25t74.5 102q46 127 0 256q-31 86 -98.5 116t-129.5 -13q-57 -39 -80.5 -120t-11.5 -168zM526 301q7 66 33.5 113.5t62 65.5 t72.5 16t71 -33t53 -84q21 -58 21 -123t-21 -123q-29 -79 -88.5 -107t-116.5 11q-54 37 -75 112t-12 152z" />
<glyph unicode="&#x26;" horiz-adv-x="777" d="M37 259v118q0 89 55 159t142 92q-87 21 -142 91.5t-55 159.5v132q0 106 75.5 182t182.5 76h175v-15h-175q-100 0 -172 -71.5t-72 -171.5v-132q0 -101 71.5 -172.5t172.5 -71.5h314v255h-46v15h108v-15h-46v-255h121v-14h-121v-362q0 -107 -76.5 -183t-182.5 -76h-71 q-107 0 -182.5 76.5t-75.5 182.5zM51 259q0 -101 71.5 -172.5t172.5 -71.5h71q101 0 172 71.5t71 172.5v362h-314q-100 0 -172 -72t-72 -172v-118z" />
<glyph unicode="'" horiz-adv-x="251" d="M71 1081v188h14v-188h-14z" />
<glyph unicode="(" horiz-adv-x="242" d="M48 633q1 -209 36 -384.5t98 -250.5l12 9q-63 74 -97 253.5t-34 373t34 373t97 253.5l-12 9q-63 -75 -98 -251t-36 -385z" />
<glyph unicode=")" horiz-adv-x="216" d="M28 7l11 -9q64 75 99 250.5t35 384.5t-35 385t-99 251l-11 -9q63 -74 97.5 -253.5t34.5 -373t-34.5 -373t-97.5 -253.5z" />
<glyph unicode="*" horiz-adv-x="498" d="M23 1142l6 13l211 -100v214h15v-214l210 100l7 -13l-213 -102l155 -178l-12 -9l-155 178l-155 -178l-11 9l155 178z" />
<glyph unicode="+" horiz-adv-x="447" d="M19 534v14h194v194h15v-194h194v-14h-194v-195h-15v195h-194z" />
<glyph unicode="," horiz-adv-x="105" d="M14 -145l59 183h16l-59 -183h-16z" />
<glyph unicode="-" d="M73 290v14h277v-14h-277z" />
<glyph unicode="." horiz-adv-x="313" d="M44 19q0 19 19 19q12 0 17 -9.5t0 -19t-17 -9.5q-19 0 -19 19z" />
<glyph unicode="0" horiz-adv-x="507" d="M23 344v581q0 169 70 261q64 83 161 83t161 -83q70 -91 70 -261v-581q0 -170 -70 -261q-64 -83 -161 -83t-161 83q-70 92 -70 261zM38 344q0 -85 19 -151t50.5 -103.5t71 -57.5t80 -17.5t79 22t65.5 55.5q68 89 68 252v582q0 163 -68 251q-59 77 -149 77t-149 -77 q-69 -89 -67 -251v-582z" />
<glyph unicode="1" horiz-adv-x="289" d="M22 1098l177 171h18v-1254h46v-15h-107v15h47v1236l-171 -164z" />
<glyph unicode="2" horiz-adv-x="398" d="M23 0q137 291 218.5 535.5t103.5 499.5q4 73 -1 103q-11 55 -54.5 87.5t-97 30t-92.5 -40.5q-17 -16 -19 -30.5t6 -21.5t18 -5q17 3 17 19q-2 13 -13 12q-5 -2 -6 -5l-13 5q5 18 25 14.5t21 -23.5q1 -12 -5 -21.5t-15.5 -12.5t-20 -1.5t-18.5 9.5t-10 21q-4 26 23 51 q43 43 107 43q61 0 106 -35t55 -94q7 -39 1 -106q-21 -252 -101 -495t-213 -525h316v47h15v-61h-353z" />
<glyph unicode="3" horiz-adv-x="449" d="M24 187h62v-14h-45q11 -65 48.5 -112t94.5 -47q79 0 131 67t76 176q41 187 -11 359q-23 75 -60 116t-87 36q-50 -4 -88 -47l-10 10q8 10 29 30.5t30 32.5q59 72 103 168t29 176q-11 55 -54 87.5t-97 30t-93 -40.5q-17 -16 -18.5 -30.5t6.5 -21.5t18 -5q18 3 15 21 q-2 13 -12 10q-3 -1 -5 -5l-14 5q5 18 25 14.5t22 -23.5q1 -12 -5.5 -21.5t-16 -12.5t-20 -1.5t-18.5 9.5t-10 21q-4 26 25.5 53.5t74.5 37t97 -9.5q37 -15 62 -46t32 -70q12 -64 -16 -149q-40 -111 -127 -217q17 8 35 9q55 5 96.5 -39t65.5 -123q54 -175 12 -367 q-25 -114 -81 -184t-141 -70q-67 0 -110 56.5t-50 130.5z" />
<glyph unicode="4" horiz-adv-x="522" d="M22 506l250 763h17l-247 -749h340v749h14v-749h90v46h15v-107h-15v47h-90v-491h47v-15h-108v15h47v491h-360z" />
<glyph unicode="5" horiz-adv-x="454" d="M27 187h63v-14h-45q11 -65 48.5 -111.5t94.5 -46.5q54 0 96 31t66 78t39 107t19.5 112t3.5 99q-3 99 -28 182q-21 71 -54.5 109.5t-68 42t-67.5 -13t-59 -51.5t-38 -77l-14 3l82 632h265v-62h-14v47h-238l-74 -565q51 94 133 102q55 6 95.5 -38.5t65.5 -124.5 q26 -88 29 -185q1 -51 -4 -105.5t-21 -116.5t-42 -109.5t-70.5 -79.5t-101.5 -32q-67 0 -108.5 55t-52.5 132z" />
<glyph unicode="6" horiz-adv-x="498" d="M34 496q-5 193 29.5 390.5t116.5 303.5q32 41 73.5 61t76.5 18.5t62 -14t34 -31.5q8 -21 -4.5 -36t-31.5 -14t-28 20q-8 18 7.5 30.5t28.5 0.5l-9 -12q-6 4 -11 -1t-2 -12q5 -11 16 -11.5t18.5 8.5t2.5 22q-8 21 -45 32t-89 -5t-89 -64q-95 -122 -128 -395 q-39 -298 18 -551q16 -74 46 -125t65 -74t73.5 -21t72.5 28t62 79t41 126q36 195 -23 368q-24 74 -63 114.5t-88 34.5q-30 -4 -55.5 -21.5t-41 -41t-23.5 -41.5t-13 -34h44v-15h-62q6 44 45 101t104 66q55 7 97.5 -35.5t69.5 -121.5q61 -178 24 -377q-14 -77 -44 -133 t-67 -83t-79 -29t-79.5 21.5t-70 77.5t-49.5 132q-28 123 -32 264z" />
<glyph unicode="7" horiz-adv-x="518" d="M20 1207v62h482l-329 -1254h46v-15h-108v15h47l130 490h-134v-46h-16v107h16v-46h137l192 734h-447v-47h-16z" />
<glyph unicode="8" horiz-adv-x="487" d="M25 351q-1 -75 13 -138t38 -104.5t54.5 -70.5t66 -38t70.5 -4.5t68 27.5t59 61q66 99 66 268q2 168 -66 268q-44 64 -105 83q48 16 81.5 59t47 95.5t17 112t-8.5 108.5q-17 88 -64.5 140t-101 58.5t-106.5 -30.5t-80 -113q-25 -68 -25 -146.5t25 -146.5q40 -109 123 -137 q-64 -20 -106 -83q-68 -100 -66 -269zM40 337q-1 15 0 30q1 69 14.5 126.5t35.5 96t50.5 65t60.5 35t64 4t62.5 -26t54.5 -56.5q65 -95 63 -274q-1 -79 -19 -143.5t-46 -104t-64 -61t-73.5 -21.5t-73.5 21.5t-64.5 61t-46 104t-18.5 143.5zM63 986q0 75 24 141 q37 102 114 128q73 24 136 -33q82 -80 84 -236q0 -159 -82 -235q-63 -58 -137 -34q-76 25 -114 125q0 1 -1 3q-24 66 -24 141z" />
<glyph unicode="9" horiz-adv-x="489" d="M40 1023q14 77 44 133t66.5 83.5t78.5 29.5t80 -22t70.5 -78.5t49.5 -132.5q27 -124 31 -262q3 -120 -8 -243t-46.5 -251t-91.5 -201q-42 -54 -99 -70.5t-97 -2.5t-50 39q-8 21 4.5 36t31 14.5t27.5 -19.5q8 -18 -7.5 -31t-27.5 -1l9 11q5 -4 10.5 2t2.5 12 q-5 11 -16 11.5t-18 -8.5t-2 -22q5 -15 29 -24.5t56 -10.5t70 17.5t67 55.5q94 121 127 393q39 301 -16 552q-16 74 -46.5 125.5t-65.5 74.5t-74 21t-73 -28t-61.5 -79t-40.5 -126q-37 -194 23 -370q55 -159 151 -148q30 4 55 21t41 41.5t24 41.5t13 34h-44v15h62 q-4 -43 -44.5 -101t-105.5 -67q-55 -7 -97.5 36t-69.5 123q-60 180 -22 376z" />
<glyph unicode=":" horiz-adv-x="59" d="M11 19q0 19 19 19t19 -19t-19 -19t-19 19zM11 283q0 19 19 19t19 -19t-19 -19t-19 19z" />
<glyph unicode=";" horiz-adv-x="98" d="M1 -145l58 183h16l-59 -183h-15zM55 283q0 19 19 19t19 -19t-19 -19t-19 19z" />
<glyph unicode="&#x3c;" horiz-adv-x="329" d="M52 575l218 253l12 -10l-210 -243l210 -242l-12 -10z" />
<glyph unicode="=" horiz-adv-x="465" d="M28 459v14h402v-14h-402zM28 615v16h402v-16h-402z" />
<glyph unicode="&#x3e;" horiz-adv-x="299" d="M38 333l210 242l-210 243l11 10l218 -253l-218 -252z" />
<glyph unicode="?" horiz-adv-x="585" d="M35 1004q0 113 76 189q41 41 94 60t105 16t101 -28t83 -66.5t49.5 -106t2.5 -139.5q-18 -110 -110 -243q-33 -48 -50.5 -77t-41 -84t-33.5 -124.5t-10 -157.5h-15q0 90 11 160.5t34.5 126t41.5 86t51 78.5q89 130 106 237q24 143 -48 233q-68 84 -175.5 90t-185.5 -71 q-69 -71 -72 -165h47v-14h-61zM274 19q0 19 19 19q12 0 17 -9.5t0 -19t-17 -9.5q-19 0 -19 19z" />
<glyph unicode="@" horiz-adv-x="781" d="M43 97v330q0 107 76 183t182 76h184q106 0 182.5 -76t76.5 -183q0 -206 -1 -309q0 -50 -34.5 -84.5t-83.5 -34.5h-85v91q-17 -37 -50 -60.5t-69.5 -29t-75 5.5t-66.5 39q-47 49 -47 112v212q0 64 47 110.5t112 46.5q50 0 89 -24t60 -67q0 61 5 72q12 23 39.5 18t28.5 -31 q2 -27 -21 -32q-21 -5 -28 12q-1 5 -1 10h15q-1 -8 7 -8q12 3 14 16q-1 16 -17.5 18.5t-23.5 -10.5q-3 -7 -3 -23v-110v-354h70q43 0 73.5 31t30.5 74v309q0 101 -72 172.5t-172 71.5h-184q-100 0 -172 -71.5t-72 -172.5v-330q0 -101 72 -172t172 -71h184v-15h-184 q-106 0 -182 75.5t-76 182.5zM248 157q0 -48 27 -83.5t65 -50.5t82 -7.5t76 39.5q42 42 42 100v216q0 58 -42.5 99.5t-101.5 41.5h-6q-58 0 -100 -42t-42 -101v-212z" />
<glyph unicode="A" horiz-adv-x="733" d="M26 -1v15h49l280 1239h-42v15h6h96h6v-15h-42l279 -1239h50v-15h-108v15h44l-112 490h-331l-111 -490h43v-15h-107zM204 519h325l-162 719z" />
<glyph unicode="B" horiz-adv-x="610" d="M26 0v15h47v1239h-47v15h230q107 0 182.5 -76t75.5 -182v-311q0 -59 -32.5 -109.5t-87.5 -71.5q76 -8 128 -66.5t52 -135.5v-114q0 -84 -59 -143.5t-143 -59.5h-346zM88 15h284q77 0 132.5 55.5t55.5 132.5v114q0 77 -55.5 133t-132.5 56h-284v-491zM88 520h227 q84 2 129 48q56 56 56 132v311q0 45 -19.5 92t-52.5 80q-71 71 -172 71h-168v-734z" />
<glyph unicode="C" horiz-adv-x="549" d="M36 259v759q0 106 75.5 182.5t182.5 76.5h230v-62h-15v47h-215q-102 0 -172 -72q-33 -32 -52.5 -79.5t-19.5 -92.5v-759q0 -45 19.5 -92.5t52.5 -80.5q71 -71 172 -71h215v46h15v-61h-230q-107 0 -182.5 76.5t-75.5 182.5z" />
<glyph unicode="D" horiz-adv-x="647" d="M26 0v15h47v1239h-47v15h327q107 0 182.5 -76t75.5 -182v-752q0 -106 -75.5 -182.5t-182.5 -76.5h-327zM87 15h266q101 0 172 71q33 33 52.5 80.5t19.5 92.5v752q0 45 -19.5 92t-52.5 80q-71 71 -172 71h-266v-1239z" />
<glyph unicode="E" horiz-adv-x="582" d="M26 0v15h47v1239h-47v15h527v-62h-15v47h-451v-734h368v46h14v-107h-14v47h-368v-491h451v46h15v-61h-527z" />
<glyph unicode="F" horiz-adv-x="577" d="M26 0v14h47v1240h-47v15h526v-62h-14v47h-451v-734h368v46h14v-107h-14v46h-368v-491h47v-14h-108z" />
<glyph unicode="G" horiz-adv-x="617" d="M36 259v752q0 106 75.5 182t182.5 76h220v-62h-15v47h-205q-101 0 -172 -71q-33 -33 -52.5 -80t-19.5 -92v-752q0 -45 19.5 -92.5t52.5 -80.5q71 -71 172 -71h272v483h-231v-46h-14v107h14v-46h247v-513h-288q-107 0 -182.5 76.5t-75.5 182.5z" />
<glyph unicode="H" horiz-adv-x="661" d="M26 0v15h46v1239h-46v15h107v-15h-46v-734h487v734h-47v15h109v-15h-47v-1239h47v-15h-109v15h47v491h-487v-491h46v-15h-107z" />
<glyph unicode="I" horiz-adv-x="158" d="M26 0v15h46v1239h-46v15h107v-15h-46v-1239h46v-15h-107z" />
<glyph unicode="J" horiz-adv-x="497" d="M26 0v61h15v-46h126q100 0 173 71q32 33 51.5 80.5t19.5 92.5v995h-46v15h107v-15h-46v-995q0 -106 -76 -182.5t-183 -76.5h-141z" />
<glyph unicode="K" horiz-adv-x="645" d="M77 0v15h47v1239h-47v15h108v-15h-47v-719l408 719h-44v15h107v-15h-45l-421 -738l421 -501h45v-15h-107v15h41l-405 485v-485h47v-15h-108z" />
<glyph unicode="L" horiz-adv-x="633" d="M26 0v15h46v1239h-46v15h108v-15h-47v-1239h507v46h14v-61h-582z" />
<glyph unicode="M" horiz-adv-x="781" d="M26 0v15h46v1239h-46v15h107v-15h-38l295 -482l295 482h-37v15h108v-15h-46v-1239h46v-15h-108v15h46v1225l-304 -497l-303 497v-1225h46v-15h-107z" />
<glyph unicode="N" horiz-adv-x="691" d="M26 0v15h47v1239h-47v15h107v-15h-38l509 -1213v1213h-46v15h108v-15h-46v-1239h46v-15h-108v15h41l-512 1222v-1222h46v-15h-107z" />
<glyph unicode="O" horiz-adv-x="652" d="M36 259v752q0 106 76 182t183 76h63q106 0 182 -75.5t76 -182.5v-753q0 -106 -76 -182t-182 -76h-63q-107 0 -183 76t-76 183zM51 259q0 -100 71.5 -172t172.5 -73h63q100 0 172 72t72 172v753q0 100 -71.5 171.5t-172.5 71.5h-63q-101 0 -172.5 -71.5t-71.5 -171.5v-752 z" />
<glyph unicode="P" horiz-adv-x="564" d="M26 0v15h46v1239h-46v15h244q107 0 182.5 -76t75.5 -182v-240q0 -106 -75.5 -182t-182.5 -76h-183v-498h47v-15h-108zM87 527h183q100 0 172 72q32 33 52 80t20 92v240q0 45 -20 92t-52 80q-71 71 -172 71h-183v-727z" />
<glyph unicode="Q" horiz-adv-x="652" d="M36 259v752q0 106 76 182t183 76h63q106 0 182 -75.5t76 -182.5v-753q0 -112 -81 -188l58 -60l-10 -10l-60 59q-72 -59 -165 -59h-63q-107 0 -183 76t-76 183zM51 259q0 -100 71.5 -172t172.5 -73h63q86 0 154 57l-38 38l10 10l39 -39q79 74 79 178v753 q0 100 -71.5 171.5t-172.5 71.5h-63q-101 0 -172.5 -71.5t-71.5 -171.5v-752z" />
<glyph unicode="R" horiz-adv-x="653" d="M26 0v15h47v1239h-47v15h244q107 0 183 -76.5t76 -181.5v-240q0 -74 -40 -137t-106 -95l197 -524h48v-15h-108v15h44l-194 517q-49 -19 -100 -19h-182v-498h46v-15h-108zM88 527h182q100 0 172 72q33 33 52.5 80t19.5 92v240q0 45 -19.5 92t-52.5 80q-71 71 -172 71h-182 v-727z" />
<glyph unicode="S" horiz-adv-x="654" d="M26 248v15h106v-15h-46q2 -64 35 -117.5t83.5 -81.5t111.5 -34q10 -1 19 -1q51 0 101 27q59 30 95 87.5t36 125.5q0 66 -27 126.5t-71 108.5t-96.5 95t-105.5 94t-97 96t-71 111t-27 130q0 81 46 144q44 63 110 91q45 19 96 18q24 0 48 -4q78 -12 135 -70q73 -73 76 -173 h46v-15h-107v15h45q-3 97 -73.5 165t-166.5 68q-99 0 -170 -70.5t-71 -168.5q0 -66 27.5 -126.5t71.5 -108.5t97 -95l106 -94t97 -96t71 -111t27 -130q0 -103 -73 -177t-175 -77h-8q-99 0 -174 70q-78 73 -81 178h-46z" />
<glyph unicode="T" horiz-adv-x="709" d="M26 1207v62h658v-62h-15v47h-307v-1239h47v-15h-109v15h47v1239h-306v-47h-15z" />
<glyph unicode="U" horiz-adv-x="723" d="M26 1254v15h107v-15h-46v-995q0 -100 71.5 -172t172.5 -73h63q100 0 172 72t72 172v996h-47v15h107v-15h-46v-996q0 -106 -76 -182t-182 -76h-63q-107 0 -183 76t-76 183v995h-46z" />
<glyph unicode="V" horiz-adv-x="797" d="M26 1254v15h107v-15h-49l315 -1228l315 1228h-49v15h107v-15h-43l-317 -1239h41v-15h-108v15h41l-317 1239h-43z" />
<glyph unicode="W" horiz-adv-x="1012" d="M26 1254v15h108v-15h-49l267 -1228l145 480h-44v14h107v-14h-44l146 -480l267 1228h-49v15h107v-15h-43l-270 -1239h41v-15h-108v15h42l-142 472l-142 -472h41v-15h-108v15h41l-269 1239h-44z" />
<glyph unicode="X" horiz-adv-x="686" d="M26 0v14h49l261 621l-261 619h-49v15h107v-15h-42l252 -601l253 601h-43v15h107v-15h-48l-261 -619l261 -621h48v-14h-107v14h43l-253 601l-252 -601h42v-14h-107z" />
<glyph unicode="Y" horiz-adv-x="793" d="M26 1254v15h107v-15h-45l308 -731l309 731h-46v15h109v-15h-47l-317 -751v-488h47v-15h-108v15h46v488l-316 751h-47z" />
<glyph unicode="Z" horiz-adv-x="688" d="M26 0v15h49l523 1239h-545v-47h-15v62h625v-15h-50l-522 -1239h545v46h14v-61h-624z" />
<glyph unicode="[" horiz-adv-x="216" d="M35 0v1269h145v-15h-130v-1239h130v-15h-145z" />
<glyph unicode="]" horiz-adv-x="186" d="M22 0v15h131v1239h-131v15h145v-1269h-145z" />
<glyph unicode="_" horiz-adv-x="455" d="M27 0v14h402v-14h-402z" />
<glyph unicode="`" horiz-adv-x="77" d="M3 1381l11 11l59 -65l-11 -10z" />
<glyph unicode="a" horiz-adv-x="419" d="M26 158v18q0 65 46 112t111 47h150v50q0 61 -43.5 87t-107.5 26q-59 0 -71 -29q-7 -19 10 -27q2 -1 3 -2q15 -5 22 10q5 12 -5 16q-3 2 -6 -1l-9 11q12 12 27.5 -1t7.5 -31q-9 -19 -28 -19.5t-31.5 14.5t-4.5 36q15 38 92 38q67 0 112.5 -32t45.5 -96v-371h47v-14h-61v91 q-36 -75 -120 -89q-16 -3 -31 -3q-64 0 -110 47q-46 46 -46 112zM40 176q0 -40 8.5 -67t33.5 -53q42 -42 104.5 -42t104.5 42q40 40 42 100v163h-150q-59 0 -101 -42t-42 -101z" />
<glyph unicode="b" horiz-adv-x="412" d="M4 1220q-3 7 -3 15q-1 8 3 16q8 16 29 18h5q18 1 27 -11q10 -14 10 -37v-800q44 92 148 92q65 0 112 -47t47 -112v-196q0 -65 -47 -111.5t-112 -46.5q-104 0 -148 91v-91h-62v14h46v1207q0 15 -3 22q-7 13 -24 10.5t-17 -18.5t13 -16q9 2 9 9h14q1 -10 -6 -17t-17 -7 q-17 0 -24 16zM75 158q0 -59 42 -101.5t101 -42.5h5q59 0 101.5 42.5t42.5 101.5v196q0 59 -42.5 101.5t-101.5 42.5h-5q-59 0 -101 -42.5t-42 -101.5v-196z" />
<glyph unicode="c" horiz-adv-x="367" d="M26 158v196q0 51 29 90.5t70 55.5q29 12 61 12q14 0 28 -2q48 -7 85 -42q22 -22 23.5 -43t-11.5 -31.5t-30 -7.5q-25 4 -28.5 28.5t19.5 29.5q9 2 17 -1.5t10 -11.5l-13 -5q-3 6 -10.5 4t-8.5 -9q-1 -12 9 -18t20 -2q13 5 12 23q0 24 -36 48q-40 26 -83 26h-6 q-59 0 -101 -42.5t-42 -101.5v-196q0 -59 42 -101.5t101 -42.5h6q57 0 99 40.5t45 96.5h14q-3 -62 -49 -106.5t-109 -44.5h-6q-64 0 -110.5 46.5t-46.5 111.5z" />
<glyph unicode="d" horiz-adv-x="416" d="M26 158v196q0 65 46.5 112t110.5 47q50 0 89.5 -24t60.5 -68v800q-1 23 9 37q8 12 27 11h6q20 -2 28 -18q4 -8 4 -16q1 -7 -3 -15q-8 -16 -24 -16q-10 0 -18 7t-7 17h16q-1 -9 8 -9q12 0 12 14v2q0 16 -16.5 18.5t-23.5 -10.5q-4 -7 -4 -22v-1207h47v-14h-61v91 q-21 -43 -60.5 -67t-89.5 -24q-64 0 -110.5 46.5t-46.5 111.5zM40 158q0 -59 42.5 -101.5t100.5 -42.5h6q59 0 101.5 43t42.5 101v196q0 59 -42.5 101.5t-101.5 42.5h-6q-59 0 -101 -42.5t-42 -101.5v-196z" />
<glyph unicode="e" horiz-adv-x="382" d="M31 158v196q0 65 46 112t111 47h7q64 0 110.5 -47t46.5 -112v-17q0 -65 -46.5 -111.5t-110.5 -46.5h-150v-21q0 -59 42 -101.5t101 -42.5h37q18 0 36 5q29 9 35 24q4 9 -1 19q-5 9 -11 10q-15 6 -23 -10q-2 -5 -0.5 -9.5t5.5 -5.5q3 -2 6 1l10 -11q-14 -13 -29 2 q-14 12 -5 30q12 25 41 16q11 -3 17 -12q11 -16 4 -35q-11 -25 -46 -33q-20 -5 -39 -5h-37q-65 0 -111 47t-46 111zM45 194h150q59 0 101 42t42 101v17q0 59 -42.5 101.5t-100.5 42.5h-7q-59 0 -101 -42.5t-42 -101.5v-160z" />
<glyph unicode="f" horiz-adv-x="301" d="M31 498v15h85v598q0 51 29 90t70 56q28 12 61 12q14 0 28 -3q49 -7 85 -41q25 -25 25 -45q0 -3 -1 -6q-2 -13 -10 -21t-18.5 -9.5t-20 1.5t-16 12.5t-5.5 21.5q1 20 21 23.5t25 -14.5l-14 -5q0 4 -4 4q-12 4 -13 -10q0 -16 16 -20q10 -2 18 5t6 21.5t-19 30.5 q-33 31 -77 38q-13 1 -26 1q-29 0 -56 -10q-37 -15 -63 -50.5t-26 -81.5v-13v-585h120v-15h-120v-484h46v-14h-107v14h46v484h-85z" />
<glyph unicode="g" horiz-adv-x="419" d="M31 158v196q0 65 46 111.5t111 47.5q50 0 89.5 -24t60.5 -68v92h61v-15h-47v-975q0 -65 -46.5 -111.5t-110.5 -47.5q-69 0 -87 26q-17 24 1.5 46.5t43.5 9.5q24 -11 14 -34q-7 -19 -25 -15q-4 1 -8 3l7 12q4 -3 8.5 0t5.5 9q0 14 -17 14q-22 -2 -22 -23q0 -33 75 -33 q61 0 104 42.5t43 101.5v568q-21 -43 -60.5 -67t-89.5 -24q-64 0 -110.5 46.5t-46.5 111.5zM45 158q0 -59 42.5 -101.5t100.5 -42.5h7q58 0 100.5 42.5t42.5 101.5v196q0 59 -42 101.5t-101 42.5h-7q-59 0 -101 -42.5t-42 -101.5v-196z" />
<glyph unicode="h" horiz-adv-x="461" d="M24 1220q-3 7 -3 14q0 8 4 17q8 16 28 18h5q18 1 27 -11q10 -14 10 -37v-800q21 44 60.5 68t89.5 24q64 0 110.5 -47t46.5 -112v-306q0 -13 4 -22q7 -13 23.5 -10.5t16.5 17.5q1 15 -10 17q-10 -1 -10 -10h-15q-1 10 6.5 17.5t17.5 7.5q15 1 23 -15q4 -8 4 -16t-4 -16 q-8 -16 -29 -18h-5q-18 0 -26 12q-10 14 -10 36v306q0 59 -42 101.5t-101 42.5h-6q-59 0 -101.5 -42.5t-42.5 -101.5v-354h-61v14h47v1207q-3 20 -4 22q-7 13 -23.5 10.5t-17.5 -18.5q0 -15 12 -16q9 2 9 9h15q1 -10 -6.5 -17t-17.5 -7q-17 0 -24 16z" />
<glyph unicode="i" horiz-adv-x="168" d="M41 0v14h47v484h-47v15h61v-499h46v-14h-107zM76 634q0 19 19 19q12 1 17 -9q2 -5 2 -10q0 -6 -2 -10q-5 -10 -17 -9q-19 0 -19 19z" />
<glyph unicode="j" horiz-adv-x="197" d="M-104 -610q-8 11 -8 23t10 23q18 23 43 10q23 -11 14 -34q-9 -20 -28 -15l-6 3l8 12q4 -3 8.5 0.5t4.5 8.5q1 13 -15 14q-19 1 -23 -17v-4q-1 -13 6.5 -20.5t22.5 -10.5t23.5 -3.5t23.5 -0.5q61 0 103 42t42 102v975h-46v15h61v-990q0 -65 -46.5 -111.5t-110.5 -47.5 q-70 0 -87 26zM114 634q0 19 19 19t19 -19t-19 -19t-19 19z" />
<glyph unicode="k" horiz-adv-x="475" d="M22 1237q0 26 28 31q5 1 10 1q20 0 30 -19q5 -11 5 -29v-940h86q59 0 101.5 42t42.5 101q0 60 5 70q11 23 39 18t29 -31q2 -27 -21 -32q-21 -5 -28 12q-2 5 -2 11h15q-1 -9 9 -9q12 1 13 16q-1 15 -17.5 18t-23.5 -10q-4 -7 -4 -63q0 -46 -25.5 -84.5t-66.5 -58.5 q64 -1 109.5 -47.5t45.5 -110.5v-109h48v-14h-108v14h46v109q0 58 -42 100t-101 42h-150v-251h24v-14h-62v14h23v1207q0 16 -4.5 25t-19.5 8q-13 -1 -17.5 -9.5t-1 -17t10.5 -8.5q4 0 7 2.5t2 6.5h15q1 -20 -19 -23q-21 -3 -29 16z" />
<glyph unicode="l" horiz-adv-x="158" d="M26 0v14h46v1240h-46v15h61v-1255h46v-14h-107z" />
<glyph unicode="m" horiz-adv-x="791" d="M31 0v14h46v484h-46v15h61v-92q29 63 93 83q27 9 53 9q36 -1 72 -17q60 -28 82 -95q17 51 58.5 81.5t98.5 30.5q65 0 111.5 -47t46.5 -112v-306q0 -15 3 -22q7 -13 24 -10.5t17 17.5t-12 17q-10 -1 -10 -10h-14q-1 10 6.5 17.5t17.5 7.5q15 1 23 -15q4 -8 4 -16t-4 -16 q-8 -16 -29 -18h-5q-18 0 -26 12q-10 14 -11 36v306q0 59 -42 101.5t-100 42.5h-6q-59 0 -101.5 -42.5t-42.5 -101.5v-234v-106h46v-14h-107v14h46v340q0 59 -42 101.5t-101 42.5h-5q-59 0 -101.5 -42t-42.5 -100v-342h46v-14h-107z" />
<glyph unicode="n" horiz-adv-x="458" d="M26 0v14h46v484h-46v15h61v-92q20 43 59.5 67.5t90.5 24.5q64 0 110.5 -47t46.5 -112v-306q0 -15 3 -22q7 -13 24 -10.5t17 17.5q0 16 -12 17q-9 -2 -9 -10h-15q-1 10 7 17.5t18 7.5q15 1 23 -15q4 -8 4 -16t-4 -16q-8 -16 -29 -18h-5q-18 0 -26 12q-10 14 -11 36v306 q0 59 -42 101.5t-100 42.5h-7q-58 0 -100 -41.5t-43 -100.5v-342h46v-14h-107z" />
<glyph unicode="o" horiz-adv-x="393" d="M36 158v196q0 65 46.5 112t111.5 47h6q64 0 110.5 -47t46.5 -112v-196q0 -65 -46.5 -111.5t-110.5 -46.5h-6q-65 0 -111.5 46.5t-46.5 111.5zM50 158q0 -59 42.5 -101.5t101.5 -42.5h6q58 0 100.5 42.5t42.5 101.5v196q0 59 -42 101.5t-101 42.5h-6q-59 0 -101.5 -42.5 t-42.5 -101.5v-196z" />
<glyph unicode="p" horiz-adv-x="407" d="M4 -586q7 15 24 15q10 0 17 -7t6 -17h-14q1 9 -9 9q-12 -1 -13 -16q0 -16 17 -18.5t24 10.5q3 7 3 22v1086h-46v15h62v-92q44 92 148 92q65 -1 112 -47.5t47 -111.5v-196q0 -65 -47 -111.5t-112 -46.5q-104 0 -148 91v-679q0 -23 -10 -36q-9 -12 -27 -12h-5q-21 2 -29 18 q-3 8 -3 16t3 16zM75 158q0 -59 42 -101.5t101 -42.5h5q59 0 101.5 42.5t42.5 101.5v196q0 59 -42.5 101.5t-101.5 42.5h-5q-59 0 -101 -42.5t-42 -101.5v-196z" />
<glyph unicode="q" horiz-adv-x="432" d="M31 158v196q0 65 46 111.5t111 47.5q50 0 89.5 -24t60.5 -68v92h61v-15h-47v-1086q0 -15 4 -22q7 -13 23.5 -10.5t16.5 18.5q1 15 -10 16q-10 -1 -10 -9h-16q-1 10 7 17t18 7q17 -1 24 -19q3 -8 3 -15q0 -9 -5 -16q-7 -12 -23 -15h-8q-12 0 -22 6q-16 11 -16 42v679 q-21 -43 -60.5 -67t-89.5 -24q-64 0 -110.5 46.5t-46.5 111.5zM45 158q0 -59 42.5 -101.5t100.5 -42.5h7q58 0 100.5 42.5t42.5 101.5v196q0 59 -42 101.5t-101 42.5h-7q-59 0 -101 -42.5t-42 -101.5v-196z" />
<glyph unicode="r" horiz-adv-x="370" d="M26 0v14h47v484h-47v15h61v-92q24 50 72 74q36 18 75 18q13 0 26 -2q53 -8 90 -47l-10 -11q-41 45 -110 45q-58 0 -100 -41.5t-43 -100.5v-342h46v-14h-107z" />
<glyph unicode="s" horiz-adv-x="379" d="M36 153v8h53v-15h-39q3 -56 43.5 -94t95.5 -38q98 0 133 60q15 26 12 59q-3 26 -19 47t-44 35.5t-47 22t-50 16.5q-70 23 -107 60q-26 26 -26 67q0 17 4 36q9 43 50 69q40 26 87 25l2 1q48 0 91 -24q51 -33 51 -64q0 -7 -2 -13q-8 -22 -33 -23q-10 0 -18 4 q-15 8 -18 22.5t6 25t23 7.5q10 -1 15 -12l-13 -6q-2 6 -9.5 3.5t-7.5 -9.5q0 -12 10 -17.5t21 -1t12 17.5q2 16 -22.5 38t-64.5 34q-16 5 -34 4q-27 0 -58 -10q-62 -21 -74 -74q-4 -17 -3 -32q0 -18 4 -32q10 -27 35.5 -43.5t51 -26.5t60.5 -21t52 -20q81 -41 89 -104 q1 -8 1 -15q0 -28 -15 -53q-39 -67 -145 -67q-64 0 -108.5 45t-44.5 108z" />
<glyph unicode="t" horiz-adv-x="418" d="M10 498v15h85v741h-46v15h108v-15h-46v-741h119v-15h-119v-328v-12q0 -46 26 -82q26 -34 63 -50q26 -11 56 -12q12 0 25 2q44 6 77 38q17 16 19 30.5t-6 22t-18 5.5q-18 -3 -16 -20q1 -14 13 -10q4 0 4 4l15 -5q-5 -18 -25 -14.5t-21 23.5t14.5 30.5t33.5 3.5t21 -29 q1 -3 1 -6q0 -21 -24 -45q-37 -34 -85 -42q-15 -2 -29 -2q-33 0 -61 12q-42 17 -70.5 56t-28.5 90v340h-85z" />
<glyph unicode="u" horiz-adv-x="481" d="M19 464q-3 7 -3 15q0 7 4 15q8 16 28 18q22 2 32 -11.5t10 -36.5v-306q0 -59 42 -101.5t101 -42.5h6q59 0 101 42t42 101v341h-46v15h107v-15h-46v-484h54v-14h-69v92q-20 -44 -59.5 -68t-89.5 -24q-65 0 -111.5 46.5t-46.5 111.5v306q0 16 -3 23q-7 13 -24 10t-17 -18 q0 -16 12 -16q9 1 9 9h15q1 -10 -7 -17t-17 -6q-17 0 -24 15z" />
<glyph unicode="v" horiz-adv-x="527" d="M10 498v15h53l201 -493l200 493h53v-15h-43l-196 -484h39v-14h-107v14h41l-197 484h-44z" />
<glyph unicode="w" horiz-adv-x="808" d="M64 512q28 5 39 -18q6 -14 6 -30v-306q0 -59 42 -101.5t101 -42.5h6q58 0 100.5 42.5t42.5 101.5v340h-47v15h108v-15h-46v-340q0 -59 42 -101.5t101 -42.5h6q59 0 101.5 43t42.5 101v306q0 48 35 48h6q21 -2 29 -18q4 -8 4 -15q1 -7 -3 -15q-8 -15 -24 -15q-10 -1 -18 6 t-7 17h15q-1 -8 8 -9q11 -2 13 12v4q0 15 -17 18t-24 -10q-3 -7 -3 -23v-306q0 -64 -46.5 -111t-111.5 -47q-56 0 -97.5 30t-58.5 81q-17 -51 -59 -81t-98 -30q-65 0 -111.5 46.5t-46.5 111.5v306q-1 11 -2 17t-6.5 11.5t-15.5 5.5q-20 -1 -21 -19q1 -15 12 -16q4 0 7.5 2.5 t2.5 6.5h14q1 -21 -19 -23q-22 -4 -29 17q-2 4 -2 11q0 30 29 35z" />
<glyph unicode="x" horiz-adv-x="475" d="M31 0v14h44v91q0 53 31 95t80 57q-49 14 -80 56t-31 95v90h-44v15h107v-15h-48v-90q0 -59 42 -101.5t101 -42.5h7q58 0 100 42.5t42 101.5v90h-46v15h107v-15h-46v-90q0 -53 -31 -95t-79 -56q48 -15 79 -57t31 -95v-91h47v-14h-107v14h45v91q0 59 -42 101.5t-100 42.5h-7 q-59 0 -101 -42.5t-42 -101.5v-91h48v-14h-107z" />
<glyph unicode="y" horiz-adv-x="475" d="M24 464q-3 7 -3 14q0 8 4 16q8 16 28 18q22 2 32 -11.5t10 -36.5v-306q0 -59 42.5 -101.5t101.5 -42.5h6q58 0 100 42t43 101l-1 341h-46v15h109v-15h-48v-975q0 -65 -46.5 -111.5t-110.5 -47.5q-70 0 -87 26q-17 24 1.5 46.5t43.5 9.5q24 -11 14 -34q-9 -20 -28 -15 q-3 1 -6 3l8 12q4 -3 8.5 0.5t4.5 8.5q1 13 -15 14q-19 1 -23 -17v-4q-2 -35 76 -35q61 0 103.5 42t42.5 102v569q-21 -44 -60 -68t-89 -24q-65 0 -112 46.5t-47 111.5v306q0 18 -3 23q-7 13 -23.5 10t-17.5 -18q0 -16 12 -16q9 1 9 9h15q1 -10 -6.5 -17t-17.5 -6 q-17 0 -24 15z" />
<glyph unicode="z" horiz-adv-x="409" d="M26 0v14h26l289 484h-298v-39h-14v54h355v-15h-27l-288 -484h297v39h15v-53h-355z" />
<glyph unicode="{" horiz-adv-x="304" d="M45 628v13q48 18 72.5 59.5t28.5 95t0.5 114.5t-6.5 120t2 109t31 85t75 45l3 -15q-51 -10 -74.5 -53.5t-22 -102t4.5 -130t4.5 -135t-22.5 -118.5t-75 -80q51 -25 75 -80t22.5 -119t-4.5 -135t-4.5 -130.5t22 -103t74.5 -53.5l-3 -14q-49 10 -75 45t-31 85t-2 109 t6.5 120t-0.5 114.5t-28.5 95t-72.5 59.5z" />
<glyph unicode="|" horiz-adv-x="81" d="M31 1v1268h15v-1268h-15z" />
<glyph unicode="}" horiz-adv-x="304" d="M47 14q51 10 74.5 53.5t22 103t-4.5 130.5t-4.5 135t22 119t74.5 80q-51 25 -74.5 80t-22 118.5t4.5 135t4.5 130t-22 102t-74.5 53.5l2 15q50 -10 76 -45t30.5 -85t1.5 -109t-6.5 -120t0.5 -114.5t29 -95t73 -59.5v-13q-48 -18 -73 -59.5t-29 -95t-0.5 -114.5t6.5 -120 t-1.5 -109t-30.5 -85t-76 -45z" />
<glyph unicode="&#xa1;" horiz-adv-x="54" d="M11 727.5q-5 9.5 0 19t17 9.5q19 0 19 -19t-19 -19q-12 0 -17 9.5zM19 0v585h16v-585h-16z" />
<glyph unicode="&#xa2;" horiz-adv-x="376" d="M28 151v211q0 64 44.5 110.5t108.5 47.5v39h-46v15h108v-15h-46v-39q58 -2 102 -42q23 -21 25.5 -42t-10.5 -32.5t-30 -8.5q-16 2 -24 15.5t-4.5 27t17.5 16.5q9 2 17 -1.5t10 -11.5l-13 -6q-2 7 -9.5 5t-8.5 -10q0 -12 9 -17.5t19.5 -1t12.5 17.5q1 17 -20 38 q-41 37 -93 38v-498q58 2 98 44t40 100h15q0 -64 -44.5 -110.5t-108.5 -47.5v-40h46v-14h-108v14h46v40q-64 1 -108.5 47.5t-44.5 110.5zM43 151q0 -58 40 -100t98 -44v499q-58 -2 -98 -44t-40 -100v-211z" />
<glyph unicode="&#xa3;" horiz-adv-x="681" d="M27 620v15h132v376q0 106 75.5 182t182.5 76h100v-62h-15v47h-85q-101 0 -172 -71.5t-71 -171.5v-376h270v46h15v-108h-15v47h-270v-605h464v46h14v-61h-493v620h-132z" />
<glyph unicode="&#xa5;" horiz-adv-x="814" d="M37 1254v15h107v-15h-43l307 -731l306 731h-43v15h108v-15h-49l-310 -741h200v-15h-204v-101h204v-14h-204v-368h46v-15h-108v15h46v368h-203v14h203v101h-203v15h199l-310 741h-49z" />
<glyph unicode="&#xa8;" horiz-adv-x="196" d="M29 1328.5q-5 9.5 0 18.5t17 9t17 -9t0 -18.5t-17 -9.5t-17 9.5zM134 1328.5q-5 9.5 0 18.5t17 9t17 -9t0 -18.5t-17 -9.5t-17 9.5z" />
<glyph unicode="&#xa9;" horiz-adv-x="539" d="M24 886q0 102 72 174.5t174 72.5t174 -72.5t72 -174.5t-72 -174t-174 -72t-174 72t-72 174zM38 886q0 -96 67.5 -164t164.5 -68q96 0 164 68t68 164t-68 164t-164 68q-97 0 -164.5 -68t-67.5 -164zM165 819v134q0 44 31 73.5t70 29.5t74 -26q32 -29 15 -48 q-14 -15 -32 -7q-11 4 -13 17t10 19.5t22 -4.5l-10 -9q-6 6 -7 -2q-2 -7 6 -10q12 -2 15 9q3 13 -23 31q-43 31 -93.5 6.5t-50.5 -79.5v-134q0 -38 26 -63.5t66 -25.5q37 0 63 26t26 63h15q0 -46 -32.5 -75.5t-72.5 -28t-74 30.5q-31 31 -31 73z" />
<glyph unicode="&#xab;" horiz-adv-x="353" d="M28 575l218 253l11 -10l-210 -243l210 -242l-11 -10zM91 575l218 253l12 -10l-210 -243l210 -242l-12 -10z" />
<glyph unicode="&#xad;" d="M73 290v14h277v-14h-277z" />
<glyph unicode="&#xae;" horiz-adv-x="303" d="M20 1138q0 54 39 92.5t93 38.5q55 0 93 -38t38 -93t-38 -93t-93 -38q-54 0 -93 38.5t-39 92.5zM29 1138q0 -51 36 -87t87 -36q52 0 87.5 36t35.5 87t-36 87.5t-87 36.5t-87 -36.5t-36 -87.5zM114 1038v9h5v182h-5v8h38q17 0 29 -12t12 -30v-38q0 -15 -10.5 -27.5 t-25.5 -13.5l23 -69h5v-9h-17v9h4l-24 69h-21v-69h4v-9h-17zM127 1123q38 0 48 11q10 10 10 23v38q0 14 -10 24t-23 10h-25v-106z" />
<glyph unicode="&#xb0;" horiz-adv-x="138" d="M19 1217q0 -21 14 -36q14 -14 35.5 -14t36.5 14q14 15 14 36t-14 36q-15 14 -36 14t-36 -14q-14 -15 -14 -36zM33.5 1206.5q-4.5 18.5 9.5 36.5q16 16 36 9t25 -25t-10 -36q-16 -16 -36 -9.5t-24.5 25z" />
<glyph unicode="&#xb1;" horiz-adv-x="471" d="M33 484v15h402v-15h-402zM33 746v15h193v193h16v-193h193v-15h-193v-194h-16v194h-193z" />
<glyph unicode="&#xb4;" horiz-adv-x="77" d="M5 1303l60 64l10 -10l-59 -65z" />
<glyph unicode="&#xb7;" horiz-adv-x="852" />
<glyph unicode="&#xbb;" horiz-adv-x="344" d="M29 332l210 242l-210 243l11 10l218 -253l-218 -252zM92 332l210 242l-210 243l11 10l219 -253l-219 -252z" />
<glyph unicode="&#xbf;" horiz-adv-x="607" d="M48 341q19 111 110 243q33 47 50.5 76.5t40.5 84t33.5 124t10.5 157.5h14q0 -90 -10.5 -160.5t-34 -126.5t-41 -86t-51.5 -79q-89 -126 -108 -236q-23 -144 50 -233q68 -84 175.5 -89.5t184.5 71.5q69 67 72 164h-46v15h61q0 -113 -77 -190q-41 -41 -94 -60t-105 -15.5 t-100.5 28.5t-83 66.5t-49.5 106t-2 139.5zM283 1241q-5 9 0 18.5t17 9.5t17 -9.5t0 -18.5t-17 -9t-17 9z" />
<glyph unicode="&#xc0;" horiz-adv-x="770" d="M45 0v15h49l281 1239h-42v15h6h95h6v-15h-42l280 -1239h49v-15h-107v15h44l-112 490h-332l-110 -490h43v-15h-108zM223 520h326l-163 719zM337 1379l11 11l59 -65l-11 -10z" />
<glyph unicode="&#xc1;" horiz-adv-x="770" d="M44 0v15h49l281 1239h-42v15h6h95h6v-15h-42l280 -1239h49v-15h-108v15h45l-112 490h-332l-110 -490h43v-15h-108zM222 520h326l-163 719zM350 1333l60 65l10 -10l-59 -65z" />
<glyph unicode="&#xc2;" horiz-adv-x="773" d="M47 0v15h49l281 1239h-42v15h6h95h6v-15h-42l280 -1239h49v-15h-107v15h44l-112 490h-332l-110 -490h43v-15h-108zM225 520h326l-163 719zM312 1341l76 70l77 -70l-10 -10l-67 60l-66 -60z" />
<glyph unicode="&#xc3;" horiz-adv-x="751" d="M34 0v15h49l281 1239h-42v15h6h95h6v-15h-42l280 -1239h49v-15h-108v15h44l-111 490h-332l-111 -490h43v-15h-107zM212 520h326l-163 719zM296 1337q6 20 21 29.5t34 3.5q7 -2 18.5 -11.5t19.5 -16.5t20 -10t20 7q8 6 11 22l15 -4q-5 -21 -20 -32t-35 -6q-8 2 -19.5 11.5 t-19.5 17t-20 10.5t-20 -7q-7 -6 -12 -19z" />
<glyph unicode="&#xc4;" horiz-adv-x="741" d="M27 0v15h49l280 1239h-42v15h7h95h6v-15h-42l279 -1239h50v-15h-108v15h44l-111 490h-332l-111 -490h43v-15h-107zM205 520h325l-162 719zM298 1327q-5 9 0 18.5t17 9.5t17 -9.5t0 -18.5t-17 -9t-17 9zM403 1327q-5 9 0 18.5t17 9.5t17 -9.5t0 -18.5t-17 -9t-17 9z" />
<glyph unicode="&#xc5;" horiz-adv-x="745" d="M29 0v15h49l280 1239h-42v15h7h95h6v-15h-42l280 -1239h49v-15h-108v15h44l-111 490h-332l-111 -490h43v-15h-107zM207 520h325l-162 719zM319 1356.5q0 -21.5 14 -36.5q14 -14 36 -14t37 14q14 15 14 36.5t-14 36.5q-15 14 -36.5 14t-36.5 -14q-14 -15 -14 -36.5z M333.5 1345.5q-4.5 18.5 9.5 36.5q16 16 36 9t25 -25t-10 -36q-16 -16 -36 -9.5t-24.5 25z" />
<glyph unicode="&#xc6;" horiz-adv-x="847" d="M13 0v15h49l280 1239h-42v15h5h526v-62h-14v47h-450v-734h367v46h15v-107h-15v47h-367v-491h450v46h14v-61h-526v15h47v490h-164l-110 -490h43v-15h-108zM191 520h161v710z" />
<glyph unicode="&#xc8;" horiz-adv-x="580" d="M27 0v15h47v1239h-47v15h527v-62h-15v47h-451v-734h368v46h14v-107h-14v47h-368v-491h451v46h15v-61h-527zM267 1374l12 10l58 -64l-10 -10z" />
<glyph unicode="&#xc9;" horiz-adv-x="579" d="M27 0v15h47v1239h-47v15h527v-62h-15v47h-451v-734h368v46h14v-107h-14v47h-368v-491h451v46h15v-61h-527zM267 1335l60 65l10 -10l-58 -65z" />
<glyph unicode="&#xca;" horiz-adv-x="582" d="M27 0v15h47v1239h-47v15h527v-62h-15v47h-451v-734h368v46h14v-107h-14v47h-368v-491h451v46h15v-61h-527zM223 1323l76 70l77 -70l-10 -10l-67 59l-67 -59z" />
<glyph unicode="&#xcb;" horiz-adv-x="580" d="M27 0h527v61h-15v-46h-451v491h368v-47h14v107h-14v-46h-368v734h451v-47h15v62h-527v-15h47v-1239h-47v-15zM235 1339q-5 9 0 18.5t17 9.5t17 -9.5t0 -18.5t-17 -9t-17 9zM339 1339q-5 9 0 18.5t17 9.5t17 -9.5t0 -18.5t-17 -9t-17 9z" />
<glyph unicode="&#xcc;" horiz-adv-x="162" d="M23 0v15h46v1239h-46v15h107v-15h-46v-1239h46v-15h-107zM42 1366l11 10l59 -64l-11 -10z" />
<glyph unicode="&#xcd;" horiz-adv-x="156" d="M23 0v15h46v1239h-46v15h107v-15h-46v-1239h46v-15h-107zM43 1316l59 64l11 -10l-59 -64z" />
<glyph unicode="&#xce;" horiz-adv-x="151" d="M0 1328l76 70l77 -70l-11 -10l-66 59l-67 -59zM23 0v15h46v1239h-46v15h107v-15h-46v-1239h46v-15h-107z" />
<glyph unicode="&#xcf;" horiz-adv-x="155" d="M6 1318.5q-5 9.5 0 18.5t17 9t17 -9t0 -18.5t-17 -9.5t-17 9.5zM23 0h107v15h-46v1239h46v15h-107v-15h46v-1239h-46v-15zM110 1318.5q-5 9.5 0 18.5t17 9t17 -9t0 -18.5t-17 -9.5t-17 9.5z" />
<glyph unicode="&#xd1;" horiz-adv-x="716" d="M37 0v15h47v1239h-47v15h107v-15h-38l509 -1213v1213h-46v15h108v-15h-46v-1239h46v-15h-108v15h41l-512 1222v-1222h46v-15h-107zM283 1335q6 20 21 29.5t34 3.5q7 -2 18.5 -11.5t19.5 -16.5t20 -10t20 7q8 6 11 22l14 -4q-5 -21 -19.5 -32t-34.5 -6q-8 2 -19.5 11.5 t-20 17t-20.5 10.5t-20 -7q-6 -4 -11 -19z" />
<glyph unicode="&#xd2;" horiz-adv-x="653" d="M35 259v752q0 106 76 182t183 76h63q107 0 182.5 -75.5t75.5 -182.5v-753q0 -106 -76 -182t-182 -76h-63q-107 0 -183 76t-76 183zM50 259q0 -100 71.5 -172t172.5 -73h63q100 0 172 72t72 172v753q0 100 -71.5 171.5t-172.5 71.5h-63q-101 0 -172.5 -71.5t-71.5 -171.5 v-752zM289 1376l11 10l58 -64l-10 -10z" />
<glyph unicode="&#xd3;" horiz-adv-x="651" d="M35 259v752q0 106 76 182t183 76h63q107 0 182.5 -75.5t75.5 -182.5v-753q0 -106 -76 -182t-182 -76h-63q-107 0 -183 76t-76 183zM50 259q0 -100 71.5 -172t172.5 -73h63q100 0 172 72t72 172v753q0 100 -71.5 171.5t-172.5 71.5h-63q-101 0 -172.5 -71.5t-71.5 -171.5 v-752zM291 1321l59 64l10 -10l-58 -64z" />
<glyph unicode="&#xd4;" horiz-adv-x="655" d="M35 259v752q0 106 76 182t183 76h63q107 0 182.5 -75.5t75.5 -182.5v-753q0 -106 -76 -182t-182 -76h-63q-107 0 -183 76t-76 183zM50 259q0 -100 71.5 -172t172.5 -73h63q100 0 172 72t72 172v753q0 100 -71.5 171.5t-172.5 71.5h-63q-101 0 -172.5 -71.5t-71.5 -171.5 v-752zM254 1317l76 69l77 -69l-11 -10l-66 59l-67 -59z" />
<glyph unicode="&#xd5;" horiz-adv-x="651" d="M35 259v752q0 106 76 182t183 76h63q107 0 182.5 -75.5t75.5 -182.5v-753q0 -106 -76 -182t-182 -76h-63q-107 0 -183 76t-76 183zM50 259q0 -100 71.5 -172t172.5 -73h63q100 0 172 72t72 172v753q0 100 -71.5 171.5t-172.5 71.5h-63q-101 0 -172.5 -71.5t-71.5 -171.5 v-752zM249 1327q6 20 21 29.5t34 3.5q7 -2 18.5 -11.5t19.5 -16.5t20 -10t20 7q8 6 11 22l15 -4q-5 -21 -20 -32t-35 -6q-8 2 -19.5 11.5t-20 16.5t-20.5 10t-20 -7q-6 -5 -11 -18z" />
<glyph unicode="&#xd6;" horiz-adv-x="651" d="M35 259q0 -107 76 -183t183 -76h63q106 0 182 76t76 182v753q0 107 -75.5 182.5t-182.5 75.5h-63q-107 0 -183 -76t-76 -182v-752zM50 259v752q0 100 71.5 171.5t172.5 71.5h63q101 0 172.5 -71.5t71.5 -171.5v-753q0 -100 -72 -172t-172 -72h-63q-101 1 -172.5 73 t-71.5 172zM255 1319q-5 9 0 18.5t17 9.5t17 -9.5t0 -18.5t-17 -9t-17 9zM360 1319q-5 9 0 18.5t17 9.5t17 -9.5t0 -18.5t-17 -9t-17 9z" />
<glyph unicode="&#xd7;" horiz-adv-x="339" d="M23 403l137 138l-137 137l10 10l137 -137l137 137l10 -10l-136 -137l136 -138l-10 -10l-137 137l-137 -137z" />
<glyph unicode="&#xd9;" horiz-adv-x="743" d="M37 1254v15h107v-15h-46v-995q0 -100 71.5 -172t172.5 -73h64q100 0 171.5 72t71.5 172v996h-47v15h108v-15h-46v-996q0 -106 -76 -182t-182 -76h-64q-107 0 -183 76t-76 183v995h-46zM339 1366l11 10l59 -64l-11 -10z" />
<glyph unicode="&#xda;" horiz-adv-x="748" d="M38 1254v15h107v-15h-46v-995q0 -100 71.5 -172t172.5 -73h64q100 0 171.5 72t71.5 172v996h-47v15h108v-15h-46v-996q0 -106 -76 -182t-182 -76h-64q-107 0 -183 76t-76 183v995h-46zM336 1311l59 64l11 -10l-59 -65z" />
<glyph unicode="&#xdb;" horiz-adv-x="755" d="M42 1254v15h108v-15h-47v-995q0 -100 71.5 -172t172.5 -73h64q100 0 171.5 72t71.5 172v996h-47v15h108v-15h-46v-996q0 -106 -76 -182t-182 -76h-64q-107 0 -183 76t-76 183v995h-46zM300 1336l76 70l77 -70l-11 -10l-66 59l-67 -59z" />
<glyph unicode="&#xdc;" horiz-adv-x="748" d="M39 1254h46v-995q0 -107 76 -183t183 -76h64q106 0 182 76t76 182v996h46v15h-108v-15h47v-996q0 -100 -71.5 -172t-171.5 -72h-64q-101 1 -172.5 73t-71.5 172v995h46v15h-107v-15zM304 1328.5q-5 9.5 0 18.5t17 9t17 -9t0 -18.5t-17 -9.5t-17 9.5zM408 1328.5 q-5 9.5 0 18.5t17 9t17 -9t0 -18.5t-17 -9.5t-17 9.5z" />
<glyph unicode="&#xdd;" horiz-adv-x="802" d="M29 1254v15h107v-15h-45l308 -731l309 731h-45v15h108v-15h-47l-316 -751v-488h46v-15h-108v15h46v488l-316 751h-47zM365 1322l59 64l10 -10l-58 -64z" />
<glyph unicode="&#xe0;" horiz-adv-x="423" d="M32 158v18q0 65 46 112t111 47h150v50q0 61 -43.5 87t-107.5 26q-59 0 -71 -29q-7 -19 10 -27q2 -1 3 -1q15 -5 22 9q5 12 -5 16q-3 2 -6 -1l-9 11q12 12 27.5 -1t7.5 -31q-9 -19 -28 -19.5t-31.5 14.5t-4.5 36q15 38 93 38q67 0 112 -32t45 -96v-371h47v-14h-61v91 q-36 -76 -120 -89.5t-141 44.5q-46 46 -46 112zM46 176q0 -40 8.5 -67t33.5 -53q42 -42 104.5 -42t104.5 42q40 40 42 100v163h-150q-59 0 -101 -42t-42 -101zM171 609l11 11l59 -65l-11 -10z" />
<glyph unicode="&#xe1;" horiz-adv-x="427" d="M31 158v18q0 65 46 112t111 47h150v50q0 61 -43.5 87t-107.5 26q-59 0 -71 -29q-7 -19 10 -27q2 -1 3 -1q15 -5 22 9q5 12 -5 16q-3 2 -6 -1l-9 11q12 12 27.5 -1t7.5 -31q-9 -19 -28 -19.5t-31.5 14.5t-4.5 36q15 38 93 38q67 0 112 -32t45 -96v-371h47v-14h-61v91 q-36 -76 -120 -89.5t-141 44.5q-46 46 -46 112zM45 176q0 -40 8.5 -67t33.5 -53q42 -42 104.5 -42t104.5 42q40 40 42 100v163h-150q-59 0 -101 -42t-42 -101zM165 559l59 65l10 -11l-58 -64z" />
<glyph unicode="&#xe2;" horiz-adv-x="425" d="M30 158v18q0 65 46 112t111 47h150v50q0 61 -43.5 87t-107.5 26q-59 0 -71 -29q-7 -19 10 -27q2 -1 3 -1q15 -5 22 9q5 12 -5 16q-3 2 -6 -1l-9 11q12 12 27.5 -1t7.5 -31q-9 -19 -28 -19.5t-31.5 14.5t-4.5 36q15 38 93 38q67 0 112 -32t45 -96v-371h47v-14h-61v91 q-36 -76 -120 -89.5t-141 44.5q-46 46 -46 112zM44 176q0 -40 8.5 -67t33.5 -53q42 -42 104.5 -42t104.5 42q40 40 42 100v163h-150q-59 0 -101 -42t-42 -101zM136 566l76 70l77 -70l-10 -10l-67 59l-67 -59z" />
<glyph unicode="&#xe3;" horiz-adv-x="434" d="M31 158v18q0 65 46 112t111 47h150v50q0 61 -43.5 87t-107.5 26q-59 0 -71 -29q-7 -19 10 -27q2 -1 3 -1q15 -5 22 9q5 12 -5 16q-3 2 -6 -1l-9 11q12 12 27.5 -1t7.5 -31q-9 -19 -28 -19.5t-31.5 14.5t-4.5 36q15 38 93 38q67 0 112 -32t45 -96v-371h47v-14h-61v91 q-36 -76 -120 -89.5t-141 44.5q-46 46 -46 112zM45 176q0 -40 8.5 -67t33.5 -53q42 -42 104.5 -42t104.5 42q40 40 42 100v163h-150q-59 0 -101 -42t-42 -101zM135 570q6 20 21 29.5t34 3.5q7 -2 18.5 -11.5t19.5 -16.5t20 -10t20 7q9 7 12 22l14 -4q-5 -21 -19.5 -32 t-34.5 -6q-8 2 -19.5 11.5t-20 17t-20.5 10.5t-20 -7q-7 -6 -12 -19z" />
<glyph unicode="&#xe4;" horiz-adv-x="418" d="M35 158q0 -66 46 -112q57 -58 141 -44.5t120 89.5v-91h61v14h-47v371q0 64 -45 96t-112 32q-78 0 -93 -38q-8 -21 4.5 -36t31.5 -14.5t28 19.5q8 18 -7.5 31t-27.5 1l9 -11q3 3 7 1q12 -3 5 -16q-8 -14 -23 -9q-19 6 -14 25q8 28 61 32h11q64 0 107.5 -26t43.5 -87v-50 h-149q-65 0 -111.5 -47t-46.5 -112v-18zM49 176q0 59 42.5 101t101.5 42h149v-163q-2 -60 -42 -100q-42 -42 -104.5 -42t-104.5 42q-25 26 -33.5 53t-8.5 67zM151 563q-5 9 0 18.5t17 9.5t17 -9.5t0 -18.5t-17 -9t-17 9zM255 563q-5 9 0 18.5t17 9.5t17 -9.5t0 -18.5t-17 -9 t-17 9z" />
<glyph unicode="&#xe5;" horiz-adv-x="425" d="M37 158q0 -66 46 -112q57 -58 141 -44.5t120 89.5v-91h62v14h-48v371q0 64 -45 96t-112 32q-77 0 -92 -38q-8 -21 4.5 -36t31 -14.5t27.5 19.5q8 18 -7.5 31t-27.5 1l9 -11q3 3 7 1q12 -3 5 -16q-8 -14 -23 -9q-18 6 -14 24q8 29 60 33h13q64 0 107 -26t43 -87v-50h-149 q-65 0 -111.5 -47t-46.5 -112v-18zM51 176q0 59 42.5 101t101.5 42h149v-163q-2 -60 -42 -100q-42 -42 -104.5 -42t-104.5 42q-25 26 -33.5 53t-8.5 67zM166 595.5q0 -21.5 14 -36.5q14 -14 36 -14t37 14q14 15 14 36.5t-14 36.5q-15 14 -36.5 14t-36.5 -14 q-14 -15 -14 -36.5zM181 585.5q-5 18.5 9 36.5q16 16 36.5 9t25.5 -25.5t-10 -36.5q-16 -16 -36 -9t-25 25.5z" />
<glyph unicode="&#xe6;" horiz-adv-x="661" d="M17 158v18q0 65 46.5 112t111.5 47h150v19v3v28q0 61 -43.5 87t-107.5 26q-60 0 -71 -30q-6 -19 12 -27q18 -6 24 11q4 11 -6 14q-4 1 -7 -2l-9 12q13 12 28.5 -1t7.5 -31q-9 -19 -28 -19.5t-31.5 14.5t-4.5 36q15 38 92 38q59 0 102 -24.5t53 -74.5q18 44 58 71.5 t88 27.5h6q64 0 111 -47t47 -112v-17q0 -65 -46.5 -111.5t-111.5 -46.5h-149v-25q2 -71 59 -111.5t127 -23.5q23 5 32 16.5t5.5 22t-13.5 13.5q-16 6 -24 -9q-6 -13 6 -16q5 0 7 2l9 -11q-13 -12 -28.5 0.5t-7.5 30.5q9 19 28 19.5t31 -14.5t4 -35q-14 -38 -92 -38 q-51 0 -91.5 30.5t-57.5 77.5l-8 -17q-36 -76 -120.5 -89.5t-141.5 44.5q-46 46 -46 112zM32 176q0 -40 8.5 -67t33.5 -53q42 -42 104.5 -42t104.5 42q41 42 42 100v2v161h-150q-59 0 -101 -42t-42 -101zM339 194h149q59 0 101.5 42t42.5 101v17q0 58 -43 101t-101 43h-6 q-58 0 -99.5 -41t-43.5 -99v-164z" />
<glyph unicode="&#xe8;" horiz-adv-x="377" d="M34 158v196q0 65 46 112t111 47h7q64 0 110.5 -47t46.5 -112v-17q0 -65 -46.5 -111.5t-110.5 -46.5h-150v-21q0 -59 42 -101.5t101 -42.5h37q18 0 36 5q29 9 35 24q4 9 -1 19q-5 9 -11 10q-15 6 -23 -10q-2 -5 -0.5 -9.5t5.5 -5.5q3 -2 6 1l10 -11q-14 -13 -29 2 q-14 12 -5 30q12 25 41 16q11 -3 17 -12q11 -16 4 -35q-11 -25 -46 -33q-20 -5 -39 -5h-37q-65 0 -111 47t-46 111zM48 194h150q59 0 101 42t42 101v17q0 59 -42.5 101.5t-100.5 42.5h-7q-59 0 -101 -42.5t-42 -101.5v-160zM152 609l11 11l58 -65l-10 -10z" />
<glyph unicode="&#xe9;" horiz-adv-x="385" d="M35 158v196q0 65 46.5 112t111.5 47h6q64 0 110.5 -47t46.5 -112v-17q0 -65 -46.5 -111.5t-110.5 -46.5h-150v-21q0 -59 42.5 -101.5t101.5 -42.5h36q18 0 36 5q29 9 35 24q4 9 -1 19q-5 9 -11 10q-15 6 -23 -10q-2 -5 -0.5 -9.5t5.5 -5.5q3 -2 6 1l10 -11q-14 -13 -29 2 q-14 12 -5 30q12 25 41 16q11 -3 17 -12q11 -16 4 -35q-11 -25 -46 -33q-20 -5 -39 -5h-36q-65 0 -111.5 47t-46.5 111zM49 194h150q59 0 101 42t42 101v17q0 59 -42.5 101.5t-100.5 42.5h-6q-59 0 -101.5 -42.5t-42.5 -101.5v-160zM151 564l59 65l10 -11l-58 -64z" />
<glyph unicode="&#xea;" horiz-adv-x="375" d="M30 158v196q0 65 46 112t111 47h7q64 0 110.5 -47t46.5 -112v-17q0 -65 -46.5 -111.5t-110.5 -46.5h-150v-21q0 -59 42 -101.5t101 -42.5h37q18 0 36 5q29 9 35 24q4 9 -1 19q-5 9 -11 10q-15 6 -23 -10q-2 -5 -0.5 -9.5t5.5 -5.5q3 -2 6 1l10 -11q-14 -13 -29 2 q-14 12 -5 30q12 25 41 16q11 -3 17 -12q11 -16 4 -35q-11 -25 -46 -33q-20 -5 -39 -5h-37q-65 0 -111 47t-46 111zM44 194h150q59 0 101 42t42 101v17q0 59 -42.5 101.5t-100.5 42.5h-7q-59 0 -101 -42.5t-42 -101.5v-160zM110 562l75 70l77 -70l-10 -10l-67 59l-66 -59z " />
<glyph unicode="&#xeb;" horiz-adv-x="380" d="M31 158q0 -64 46 -111t111 -47h37q19 0 39 5q35 8 46 33q7 19 -4 35q-6 9 -17 12q-29 9 -41 -16q-9 -18 5 -30q15 -15 29 -2l-10 11q-3 -3 -6 -1q-4 1 -5.5 5.5t0.5 9.5q8 16 23 10q6 -1 11 -10q5 -10 1 -19q-6 -15 -35 -24q-18 -5 -36 -5h-37q-59 0 -101 42.5t-42 101.5 v21h150q64 0 110.5 46.5t46.5 111.5v17q0 65 -46.5 112t-110.5 47h-7q-65 0 -111 -47t-46 -112v-196zM45 194v160q0 59 42 101.5t101 42.5h7q58 0 100.5 -42.5t42.5 -101.5v-17q0 -59 -42 -101t-101 -42h-150zM116 567q-5 9 0 18.5t17 9.5t17 -9.5t0 -18.5t-17 -9t-17 9z M221 567q-5 9 0 18.5t17 9.5t17 -9.5t0 -18.5t-17 -9t-17 9z" />
<glyph unicode="&#xec;" horiz-adv-x="185" d="M45 0v14h47v484h-47v15h61v-499h47v-14h-108zM56 637l12 10l58 -64l-10 -11z" />
<glyph unicode="&#xed;" horiz-adv-x="175" d="M36 0v14h47v484h-47v15h61v-499h46v-14h-107zM54 591l60 64l10 -10l-58 -64z" />
<glyph unicode="&#xee;" horiz-adv-x="173" d="M10 594l76 70l77 -70l-10 -10l-67 59l-67 -59zM36 0v14h47v484h-47v15h61v-499h46v-14h-107z" />
<glyph unicode="&#xef;" horiz-adv-x="173" d="M17 584.5q-5 9.5 0 18.5t17 9t17 -9t0 -18.5t-17 -9.5t-17 9.5zM37 0v14h47v484h-47v15h61v-499h46v-14h-107zM121 584.5q-5 9.5 0 18.5t17 9t17 -9t0 -18.5t-17 -9.5t-17 9.5z" />
<glyph unicode="&#xf1;" horiz-adv-x="482" d="M29 0v14h46v484h-46v15h61v-92q20 43 59.5 67.5t90.5 24.5q64 0 110.5 -47t46.5 -112v-306q0 -15 3 -22q7 -13 24 -10.5t17 17.5q0 16 -12 17q-9 -2 -9 -10h-14q-1 10 6.5 17.5t17.5 7.5q16 0 23.5 -15.5t-0.5 -31.5t-29 -18q-22 -2 -31.5 11.5t-10.5 36.5v306 q0 59 -42 101.5t-100 42.5h-7q-58 0 -100 -41.5t-43 -100.5v-342h46v-14h-107zM153 601q6 20 21 29.5t34 3.5q7 -2 18.5 -11.5t19.5 -16.5t20 -10t20 7q8 6 11 22l14 -4q-5 -21 -19.5 -32t-34.5 -6q-8 2 -19.5 11.5t-20 16.5t-20.5 10t-20 -7q-6 -5 -11 -18z" />
<glyph unicode="&#xf2;" horiz-adv-x="377" d="M28 158v196q0 65 46 112t111 47h6q65 0 111.5 -47t46.5 -112v-196q0 -64 -46.5 -111t-111.5 -47h-6q-65 0 -111 46.5t-46 111.5zM42 158q0 -59 42 -101.5t101 -42.5h6q59 0 101.5 43t42.5 101v196q0 59 -42.5 101.5t-101.5 42.5h-6q-59 0 -101 -42.5t-42 -101.5v-196z M151 614l11 11l58 -65l-10 -10z" />
<glyph unicode="&#xf3;" horiz-adv-x="375" d="M28 158v196q0 65 46 112t111 47h6q65 0 111.5 -47t46.5 -112v-196q0 -64 -46.5 -111t-111.5 -47h-6q-65 0 -111 46.5t-46 111.5zM42 158q0 -59 42 -101.5t101 -42.5h6q59 0 101.5 43t42.5 101v196q0 59 -42.5 101.5t-101.5 42.5h-6q-59 0 -101 -42.5t-42 -101.5v-196z M153 566l59 65l10 -10l-58 -65z" />
<glyph unicode="&#xf4;" horiz-adv-x="372" d="M28 158v196q0 65 46 112t111 47h6q65 0 111.5 -47t46.5 -112v-196q0 -64 -46.5 -111t-111.5 -47h-6q-65 0 -111 46.5t-46 111.5zM42 158q0 -59 42 -101.5t101 -42.5h6q59 0 101.5 43t42.5 101v196q0 59 -42.5 101.5t-101.5 42.5h-6q-59 0 -101 -42.5t-42 -101.5v-196z M115 575l75 70l77 -70l-10 -10l-67 60l-66 -60z" />
<glyph unicode="&#xf5;" horiz-adv-x="374" d="M28 158v196q0 65 46 112t111 47h6q65 0 111.5 -47t46.5 -112v-196q0 -64 -46.5 -111t-111.5 -47h-6q-65 0 -111 46.5t-46 111.5zM42 158q0 -59 42 -101.5t101 -42.5h6q59 0 101.5 43t42.5 101v196q0 59 -42.5 101.5t-101.5 42.5h-6q-59 0 -101 -42.5t-42 -101.5v-196z M112 582q14 44 55 32q7 -2 18.5 -11.5t19.5 -16t20 -9.5t20 7q8 6 11 21l14 -4q-5 -21 -19.5 -32t-34.5 -6q-8 2 -19.5 11.5t-20 17t-20.5 10.5t-20 -7q-6 -5 -11 -18z" />
<glyph unicode="&#xf6;" horiz-adv-x="380" d="M28 158q0 -65 46 -111.5t111 -46.5h6q65 0 111.5 47t46.5 111v196q0 65 -46.5 112t-111.5 47h-6q-65 0 -111 -47t-46 -112v-196zM42 158v196q0 59 42 101.5t101 42.5h6q59 0 101.5 -42.5t42.5 -101.5v-196q0 -58 -42.5 -101t-101.5 -43h-6q-59 0 -101 42.5t-42 101.5z M117 568.5q-5 9.5 0 18.5t17 9t17 -9t0 -18.5t-17 -9.5t-17 9.5zM222 568.5q-5 9.5 0 18.5t17 9t17 -9t0 -18.5t-17 -9.5t-17 9.5z" />
<glyph unicode="&#xf7;" horiz-adv-x="432" d="M14 529v16h404v-16h-404zM197 405q0 19 19 19t19 -19t-19 -19t-19 19zM197 669q0 19 19 19t19 -19t-19 -19t-19 19z" />
<glyph unicode="&#xf9;" horiz-adv-x="494" d="M23 464q-7 15 0.5 30.5t28.5 17.5q22 2 32 -11.5t10 -36.5v-306q0 -59 42.5 -101.5t101.5 -42.5h5q59 0 101 42t42 101v341h-46v15h107v-15h-46v-484h54v-14h-69v92q-20 -44 -59 -68t-89 -24q-65 0 -112 46.5t-47 111.5v306q0 16 -3 23q-7 13 -24 10t-17 -18 q0 -16 12 -16q9 1 9 9h15q1 -10 -7 -17t-17 -6q-17 0 -24 15zM195 630l11 10l58 -65l-10 -10z" />
<glyph unicode="&#xfa;" horiz-adv-x="492" d="M30 464q-7 15 0.5 30.5t28.5 17.5q22 2 32 -11.5t10 -36.5v-306q0 -59 42.5 -101.5t101.5 -42.5h5q58 0 100.5 42t42.5 101v341h-46v15h108v-15h-46v-484h53v-14h-69v92q-20 -44 -59 -68t-89 -24q-65 0 -112 46.5t-47 111.5v306q0 16 -3 23q-7 13 -24 10t-17 -18 q0 -16 12 -16q9 1 9 9h15q1 -10 -7 -17t-17 -6q-17 0 -24 15zM212 556l59 65l11 -11l-59 -64z" />
<glyph unicode="&#xfb;" horiz-adv-x="490" d="M31 464q-7 15 0.5 30.5t28.5 17.5q22 2 32 -11.5t10 -36.5v-306q0 -59 42.5 -101.5t101.5 -42.5h5q59 0 101 42t42 101v341h-46v15h108v-15h-46v-484h53v-14h-69v92q-20 -44 -59 -68t-89 -24q-65 0 -112 46.5t-47 111.5v306q0 16 -3 23q-7 13 -24 10t-17 -18t12 -16 q10 1 10 9h14q1 -10 -7 -17t-17 -6q-17 0 -24 15zM173 579l76 69l77 -69l-11 -11l-66 60l-67 -60z" />
<glyph unicode="&#xfc;" horiz-adv-x="487" d="M24 464q-7 15 0.5 30.5t28.5 17.5q22 2 32 -11.5t10 -36.5v-306q0 -59 42.5 -101.5t101.5 -42.5h5q58 0 100.5 42t42.5 101v341h-46v15h108v-15h-47v-484h54v-14h-69v92q-20 -44 -59 -68t-89 -24q-65 0 -112 46.5t-47 111.5v306q0 16 -3 23q-7 13 -24 10t-17 -18 q0 -16 12 -16q9 1 9 9h15q1 -10 -7 -17t-17 -6q-17 0 -24 15zM172 573q-5 9 0 18.5t17 9.5t17 -9.5t0 -18.5t-17 -9t-17 9zM277 573q-5 9 0 18.5t17 9.5t17 -9.5t0 -18.5t-17 -9t-17 9z" />
<glyph unicode="&#xfd;" horiz-adv-x="492" d="M41 464q-7 15 1 30.5t28 17.5q22 2 32 -11.5t10 -36.5v-306q0 -59 42 -101.5t101 -42.5h6q58 0 100 42t43 101l-1 341h-46v15h109v-15h-47v-975q0 -64 -46.5 -111t-111.5 -48q-70 0 -87 26q-17 24 1.5 46.5t43.5 9.5q24 -11 14 -34q-7 -19 -25 -15q-4 1 -8 3l8 12 q4 -3 8 0.5t4 8.5q1 13 -15 14q-19 1 -23 -17v-4q-2 -35 76 -35q61 0 103.5 42t42.5 102v569q-21 -44 -60 -68t-89 -24q-65 0 -112 46.5t-47 111.5v306q0 18 -3 23q-7 13 -23.5 10t-17.5 -18q0 -15 12 -16q10 1 10 9h14q1 -10 -6 -17t-17 -6q-17 0 -24 15zM208 557l59 65 l11 -11l-59 -64z" />
<glyph unicode="&#xff;" horiz-adv-x="485" d="M32 464q-7 15 1 30.5t28 17.5q22 2 32 -11.5t10 -36.5v-306q0 -59 42.5 -101.5t101.5 -42.5h6q58 0 100 42t43 101l-1 341h-46v15h109v-15h-47v-975q0 -64 -46.5 -111t-111.5 -48q-70 0 -87 26q-17 24 1.5 46.5t43.5 9.5q24 -11 14 -34q-9 -20 -28 -15q-3 1 -6 3l9 12 q4 -3 8 0.5t4 8.5q1 13 -15 14q-19 1 -23 -17v-4q-2 -35 76 -35q61 0 103.5 42t42.5 102v569q-21 -44 -60 -68t-89 -24q-65 0 -112 46.5t-47 111.5v306q0 18 -3 23q-7 13 -23.5 10t-17.5 -18q0 -15 12 -16q10 1 10 9h14q1 -10 -6.5 -17t-17.5 -6q-17 0 -24 15zM171 570.5 q-5 9.5 0 18.5t17 9t17 -9t0 -18.5t-17 -9.5t-17 9.5zM276 570.5q-5 9.5 0 18.5t17 9t17 -9t0 -18.5t-17 -9.5t-17 9.5z" />
<glyph unicode="&#x152;" horiz-adv-x="884" d="M31 259v752q0 107 75.5 182.5t182.5 75.5h559v-62h-15v47h-450v-734h367v46h15v-107h-15v47h-367v-491h450v46h15v-61h-500h-27h-32q-107 0 -182.5 76t-75.5 183zM45 259q0 -100 72 -172.5t172 -72.5h32v1h47v1239h-47h-32q-100 0 -172 -71.5t-72 -171.5v-752z" />
<glyph unicode="&#x153;" horiz-adv-x="699" d="M35 158v196q0 65 46.5 112t111.5 47h6q53 0 94.5 -31.5t55.5 -80.5q15 49 57 80.5t95 31.5h5q65 0 112 -47t47 -112v-17q0 -65 -47 -111.5t-112 -46.5h-149v-21q0 -72 58 -114.5t128 -24.5q23 5 31.5 16.5t5 22t-12.5 13.5q-16 6 -23 -9q-7 -13 5 -16q5 0 7 2l9 -11 q-13 -12 -28.5 0.5t-7.5 30.5q9 19 28 19.5t31.5 -14.5t4.5 -35q-15 -38 -92 -38q-52 0 -94.5 31.5t-57.5 79.5q-15 -48 -56.5 -79.5t-93.5 -31.5h-6q-65 0 -111.5 47t-46.5 111zM50 158q0 -59 42.5 -101.5t100.5 -42.5h6q59 0 101 42.5t42 101.5v196q0 59 -42 101.5 t-101 42.5h-6q-59 0 -101 -42.5t-42 -101.5v-196zM357 194h149q59 0 101 42t42 101v17q0 59 -42 101.5t-101 42.5h-5q-59 0 -101.5 -42.5t-42.5 -101.5v-160z" />
<glyph unicode="&#x178;" horiz-adv-x="807" d="M33 1254h47l316 -751v-488h-46v-15h108v15h-46v488l316 751h47v15h-108v-15h45l-309 -731l-308 731h45v15h-107v-15zM314 1328.5q-5 9.5 0 18.5t17 9t17 -9t0 -18.5t-17 -9.5t-17 9.5zM465 1328.5q-5 9.5 0 18.5t17 9t17 -9t0 -18.5t-17 -9.5t-17 9.5z" />
<glyph unicode="&#x2c6;" horiz-adv-x="175" d="M11 1320l76 70l77 -70l-10 -10l-67 59l-67 -59z" />
<glyph unicode="&#x2dc;" horiz-adv-x="172" d="M6 1233q6 20 21 29.5t34 3.5q7 -2 18.5 -11.5t19.5 -16.5t20 -10t20 7q9 7 12 21l14 -4q-5 -21 -19.5 -32t-34.5 -6q-8 2 -19.5 11.5t-20 17t-20.5 10.5t-20 -7q-7 -6 -12 -18z" />
<glyph unicode="&#x2000;" horiz-adv-x="705" />
<glyph unicode="&#x2001;" horiz-adv-x="1411" />
<glyph unicode="&#x2002;" horiz-adv-x="705" />
<glyph unicode="&#x2003;" horiz-adv-x="1411" />
<glyph unicode="&#x2004;" horiz-adv-x="470" />
<glyph unicode="&#x2005;" horiz-adv-x="352" />
<glyph unicode="&#x2006;" horiz-adv-x="235" />
<glyph unicode="&#x2007;" horiz-adv-x="235" />
<glyph unicode="&#x2008;" horiz-adv-x="176" />
<glyph unicode="&#x2009;" horiz-adv-x="282" />
<glyph unicode="&#x200a;" horiz-adv-x="78" />
<glyph unicode="&#x2010;" d="M73 290v14h277v-14h-277z" />
<glyph unicode="&#x2011;" d="M73 290v14h277v-14h-277z" />
<glyph unicode="&#x2012;" d="M73 290v14h277v-14h-277z" />
<glyph unicode="&#x2013;" horiz-adv-x="354" d="M27 534v14h300v-14h-300z" />
<glyph unicode="&#x2014;" horiz-adv-x="447" d="M27 260v14h394v-14h-394z" />
<glyph unicode="&#x2018;" horiz-adv-x="229" d="M47 1085l58 184h16l-59 -184h-15z" />
<glyph unicode="&#x2019;" horiz-adv-x="299" d="M60 1085l59 184h15l-58 -184h-16z" />
<glyph unicode="&#x201a;" horiz-adv-x="79" d="M3 -119l58 184h16l-59 -184h-15z" />
<glyph unicode="&#x201c;" horiz-adv-x="273" d="M33 1085l58 184h15l-58 -184h-15zM102 1085l60 184h15l-58 -184h-17z" />
<glyph unicode="&#x201d;" horiz-adv-x="299" d="M43 1085l58 184h16l-59 -184h-15zM113 1085l59 184h15l-58 -184h-16z" />
<glyph unicode="&#x201e;" horiz-adv-x="167" d="M12 -98l59 183h15l-58 -183h-16zM82 -98l59 183h16l-59 -183h-16z" />
<glyph unicode="&#x2022;" horiz-adv-x="130" d="M30 611q-10 20 0 40t35 20t36 -20t0 -40t-36 -20t-35 20z" />
<glyph unicode="&#x2026;" horiz-adv-x="267" d="M28 19q0 19 19 19t19 -19t-19 -19t-19 19zM114 19q0 19 19 19t19 -19t-19 -19t-19 19zM200 19q0 19 19 19q12 0 17 -9.5t0 -19t-17 -9.5q-19 0 -19 19z" />
<glyph unicode="&#x202f;" horiz-adv-x="282" />
<glyph unicode="&#x2039;" horiz-adv-x="270" d="M16 575l218 253l12 -10l-210 -243l210 -242l-12 -10z" />
<glyph unicode="&#x203a;" horiz-adv-x="247" d="M17 333l210 242l-210 243l12 10l218 -253l-218 -252z" />
<glyph unicode="&#x205f;" horiz-adv-x="352" />
<glyph unicode="&#x20ac;" horiz-adv-x="677" d="M25 521v15h132v197h-132v15h132v263q0 106 76 182t183 76h234v-62h-14v47h-221q-101 0 -172 -71.5t-71 -171.5v-263h331v47h14v-108h-14v46h-331v-197h331v47h14v-108h-14v46h-331l-1 -262q0 -101 72 -172.5t173 -71.5h220v46h14v-61h-234q-108 0 -184 76q-75 75 -75 183 v262h-132z" />
<glyph unicode="&#x2122;" horiz-adv-x="444" d="M15 1246v23h208l85 -139l86 139h12v-357h8v-15h-31v15h8v324l-76 -123h-13l-76 123v-324h8v-15h-30v15h8v342h-91v-342h7v-15h-30v15h7v342h-75v-8h-15z" />
<glyph unicode="&#x25fc;" horiz-adv-x="512" d="M0 0v512h512v-512h-512z" />
</font>
</defs>
</svg>
